<svg id="Layer_1" data-name="Layer 1" xmlns="http://www.w3.org/2000/svg" viewBox="0 0 292.41 253.54"><defs><style>.cls-1{fill:#231f20;}</style></defs><title>cat</title><path class="cls-1" d="M1014.6,545.75a15.09,15.09,0,1,0,15.09,15.09A15.09,15.09,0,0,0,1014.6,545.75Zm82.19,59.92L1071,604a105.58,105.58,0,0,0,13.47-51.37,104.24,104.24,0,0,0-6.43-36c1.4-6.65,9.5-10.14,11.57-26.63,5.32-42.5-1-53.38-7.8-58.41-6.43-4.73-18.38-7.82-58.31,5.14-15.9,5.16-23.36,4.12-41.58,1.52a119.39,119.39,0,0,0-44,0c-6-2.49-20.68-8.36-36.58-13.52-39.92-13-51.88-9.87-58.31-5.14-6.84,5-13.12,15.91-7.8,58.41,2.07,16.49,5.16,32,6.57,38.63a104.22,104.22,0,0,0-6.43,36A105.57,105.57,0,0,0,848.82,604l-25.76,1.7a10,10,0,1,0,1.32,20l37.74-2.49q3.09,3.64,6.52,7.11l-27.41,18.49a10,10,0,1,0,11.18,16.58l31.93-21.54c22.09,16.16,49,25.25,75.58,25.25s53.48-9.09,75.58-25.25l31.93,21.54a10,10,0,0,0,11.18-16.58l-27.41-18.49q3.43-3.46,6.52-7.11l37.74,2.49a10,10,0,0,0,1.32-20ZM855.05,435.75c2.25-.49,11.92-1.33,42,8.6,3.55,1.17,7,2.38,10.36,3.57a132.08,132.08,0,0,0-33.5,22,126.12,126.12,0,0,0-17,18.68c-.54-3.37-1.06-6.89-1.54-10.48C851.25,446.95,854.1,437.8,855.05,435.75ZM966,648.83v-20c7.91-3.51,20.67-10.31,20.67-17.54,0-4.83-12-10.5-26.79-10.5s-26.79,5.67-26.79,10.5c0,7.23,12.76,14,20.67,17.54v20c-53.12-3.15-98.46-46.76-98.46-96.23,0-51.36,48.87-96.42,104.58-96.42s104.58,45.05,104.58,96.42C1064.5,602.08,1019.16,645.69,966,648.83ZM1075.47,486c-.48,3.62-1,7.19-1.56,10.61a126,126,0,0,0-17-18.67c-9.33-8.44-13.08-14.68-24.49-23-1.59-1.42-2.27-1.37,1.24-2.54,30.15-10,41.83-8.12,44.09-7.63C1078.75,446.79,1079.59,454.92,1075.47,486ZM905.25,545.75a15.09,15.09,0,1,0,15.09,15.09A15.09,15.09,0,0,0,905.25,545.75Z" transform="translate(-813.72 -415.49)"/></svg>